<svg xmlns="http://www.w3.org/2000/svg" xmlns:xlink="http://www.w3.org/1999/xlink" width="1080" zoomAndPan="magnify" viewBox="0 0 810 809.999993" height="1080" preserveAspectRatio="xMidYMid meet" version="1.2"><defs><clipPath id="5d8eb4541c"><path d="M 316.023438 72.320312 L 389.445312 72.320312 L 389.445312 147.625 L 316.023438 147.625 Z M 316.023438 72.320312 "/></clipPath><clipPath id="45b686cb17"><path d="M 389.398438 98.851562 C 389.398438 122.476562 386.699219 128.550781 383.101562 133.125 C 379.5 137.699219 374.25 141.824219 369 144.226562 C 363.675781 146.625 357.148438 147.824219 351.300781 147.449219 C 345.523438 147.074219 339.148438 145.125 334.199219 142.125 C 329.25 139.125 324.523438 134.398438 321.523438 129.449219 C 318.523438 124.425781 316.5 118.050781 316.199219 112.273438 C 315.824219 106.5 317.023438 99.898438 319.425781 94.648438 C 321.75 89.324219 325.875 84.074219 330.449219 80.476562 C 335.023438 76.949219 341.101562 74.175781 346.875 73.125 C 352.574219 72.074219 359.25 72.523438 364.726562 74.25 C 370.273438 75.976562 380.101562 83.550781 380.101562 83.550781 "/></clipPath><clipPath id="14edca1a43"><path d="M 0 0 L 391.804688 0 L 391.804688 292.621094 L 0 292.621094 Z M 0 0 "/></clipPath><clipPath id="f8ffaedac2"><path d="M 350.324219 147.375 C 287.324219 140.773438 269.175781 136.574219 252 132.074219 C 235.050781 127.574219 221.550781 122.773438 201.824219 116.324219 C 173.25 107.023438 123.601562 88.050781 97.425781 80.925781 C 81.976562 76.726562 73.574219 74.699219 60.074219 73.199219 C 44.476562 71.398438 18 80.023438 9 72.074219 C 1.199219 65.175781 -0.148438 36.375 3.449219 34.574219 C 7.125 32.773438 26.25 66 31.949219 63.824219 C 39.148438 61.050781 28.125 17.625 34.949219 -2.398438 C 41.773438 -22.425781 60.75 -42.074219 72.976562 -56.398438 C 82.273438 -67.273438 92.101562 -76.351562 100.050781 -82.800781 C 105.523438 -87.300781 110.550781 -90.601562 114.976562 -92.925781 C 118.050781 -94.574219 120.449219 -95.550781 123.300781 -96.300781 C 126.226562 -97.125 129.300781 -97.574219 132.226562 -97.648438 C 135.226562 -97.726562 138.300781 -97.425781 141.226562 -96.75 C 144.148438 -96.148438 147.074219 -95.101562 149.773438 -93.75 C 152.476562 -92.476562 155.101562 -90.75 157.351562 -88.875 C 159.675781 -86.925781 161.773438 -84.675781 163.5 -82.199219 C 165.300781 -79.800781 166.800781 -77.101562 167.925781 -74.324219 C 169.050781 -71.550781 169.875 -68.550781 170.324219 -65.625 C 170.699219 -62.625 170.773438 -59.550781 170.550781 -56.550781 C 170.25 -53.625 169.574219 -50.550781 168.601562 -47.699219 C 167.550781 -44.925781 166.199219 -42.148438 164.550781 -39.601562 C 162.976562 -37.125 160.949219 -34.726562 158.773438 -32.699219 C 156.523438 -30.675781 154.425781 -30.449219 151.425781 -27.375 C 143.773438 -19.648438 126.148438 5.773438 117.449219 20.851562 C 110.476562 32.851562 107.25 41.773438 101.625 54.898438 C 94.273438 72.449219 84.523438 97.800781 77.851562 117.148438 C 72.148438 133.726562 63.226562 163.800781 63.375 163.875 C 63.601562 163.875 71.851562 126.300781 80.398438 112.949219 C 87.523438 101.851562 101.25 94.199219 107.699219 87.300781 C 111.675781 83.023438 113.773438 79.351562 116.625 76.351562 C 118.949219 73.949219 120.976562 72.074219 123.449219 70.425781 C 125.925781 68.699219 128.699219 67.273438 131.476562 66.300781 C 134.324219 65.25 137.324219 64.5 140.324219 64.199219 C 143.25 63.824219 146.398438 63.824219 149.324219 64.199219 C 152.324219 64.574219 155.324219 65.398438 158.101562 66.449219 C 160.875 67.5 163.648438 69 166.050781 70.726562 C 168.523438 72.449219 170.851562 74.476562 172.800781 76.726562 C 174.75 78.976562 176.476562 81.523438 177.898438 84.226562 C 179.25 86.851562 180.300781 89.773438 181.050781 92.699219 C 181.726562 95.625 182.101562 98.699219 182.023438 101.699219 C 182.023438 104.699219 181.648438 107.773438 180.898438 110.625 C 180.148438 113.550781 179.023438 116.398438 177.675781 119.101562 C 176.25 121.726562 175.273438 123.601562 172.425781 126.449219 C 166.648438 132.449219 150.898438 141.148438 140.925781 149.398438 C 130.875 157.574219 121.199219 166.351562 112.351562 175.726562 C 103.5 185.175781 95.101562 194.851562 87.898438 205.949219 C 80.25 217.726562 72.226562 233.324219 68.175781 244.648438 C 65.25 252.824219 65.625 260.851562 63.449219 266.851562 C 61.800781 271.125 60.148438 274.351562 57.675781 277.5 C 55.273438 280.726562 52.199219 283.574219 48.898438 285.824219 C 45.601562 288.074219 41.699219 289.875 37.875 290.925781 C 33.976562 291.976562 29.773438 292.425781 25.800781 292.199219 C 21.824219 291.976562 17.625 291 13.949219 289.5 C 10.199219 288.074219 6.601562 285.824219 3.523438 283.273438 C 0.523438 280.648438 -2.25 277.425781 -4.273438 273.976562 C -6.300781 270.523438 -7.875 266.550781 -8.699219 262.648438 C -9.601562 258.75 -9.824219 254.550781 -9.375 250.574219 C -8.925781 246.601562 -7.726562 242.476562 -6.074219 238.875 C -4.351562 235.273438 -1.949219 231.75 0.75 228.824219 C 3.523438 225.976562 6.898438 223.425781 10.425781 221.550781 C 14.023438 219.675781 18 218.324219 21.976562 217.726562 C 25.949219 217.050781 30.148438 217.125 34.125 217.726562 C 38.023438 218.398438 42.074219 219.75 45.601562 221.625 C 49.125 223.574219 52.5 226.125 55.199219 229.050781 C 57.976562 231.976562 60.375 235.5 62.023438 239.101562 C 63.675781 242.699219 64.800781 246.824219 65.25 250.800781 C 65.625 254.773438 65.398438 259.050781 64.5 262.949219 C 63.675781 266.773438 62.023438 270.75 60 274.199219 C 57.898438 277.574219 55.125 280.800781 52.125 283.425781 C 49.050781 285.976562 45.375 288.148438 41.699219 289.648438 C 37.949219 291.074219 33.824219 291.976562 29.851562 292.199219 C 25.875 292.425781 21.601562 291.898438 17.773438 290.851562 C 13.949219 289.726562 10.050781 287.925781 6.75 285.675781 C 3.449219 283.425781 0.375 280.5 -2.023438 277.351562 C -4.425781 274.125 -6.375 270.375 -7.648438 266.625 C -8.925781 262.800781 -9.75 259.726562 -9.601562 254.625 C -9.300781 245.398438 -5.324219 228.226562 -1.125 216 C 2.925781 204.074219 8.25 193.574219 14.925781 182.023438 C 22.5 168.675781 32.398438 154.050781 42.898438 141.148438 C 53.476562 128.101562 65.699219 115.199219 78.226562 104.25 C 90.300781 93.75 109.125 82.351562 116.625 76.351562 C 119.925781 73.726562 120.976562 72.074219 123.449219 70.425781 C 125.925781 68.699219 128.699219 67.351562 131.476562 66.300781 C 134.324219 65.25 137.324219 64.5 140.25 64.199219 C 143.25 63.824219 146.324219 63.824219 149.324219 64.199219 C 152.324219 64.574219 155.324219 65.398438 158.101562 66.449219 C 160.875 67.5 163.648438 69 166.050781 70.726562 C 168.523438 72.449219 170.851562 74.476562 172.800781 76.726562 C 174.75 78.976562 176.476562 81.523438 177.898438 84.226562 C 179.25 86.851562 180.300781 89.773438 181.050781 92.699219 C 181.726562 95.625 182.101562 98.699219 182.023438 101.699219 C 182.023438 104.625 181.648438 107.699219 180.898438 110.625 C 180.148438 113.550781 179.023438 116.398438 177.675781 119.101562 C 176.25 121.726562 174.601562 123.675781 172.5 126.449219 C 169.351562 130.5 165.75 135.074219 160.5 140.550781 C 152.25 149.175781 139.273438 161.851562 126.523438 172.125 C 111.976562 183.75 93.75 197.925781 77.398438 205.949219 C 63.300781 212.925781 48.75 220.273438 35.175781 219.523438 C 22.199219 218.851562 5.550781 212.773438 -2.324219 202.949219 C -10.800781 192.375 -12.074219 171.523438 -11.625 156.375 C -11.101562 141.601562 -4.648438 128.101562 0 113.101562 C 5.175781 96.523438 12.226562 77.175781 18.300781 61.273438 C 23.476562 47.550781 28.125 35.925781 33.75 23.175781 C 39.523438 9.898438 45.675781 -3.75 52.5 -16.726562 C 59.398438 -29.625 65.324219 -42.449219 74.851562 -54.449219 C 85.574219 -68.023438 106.199219 -87.226562 114.976562 -92.925781 C 118.5 -95.175781 120.449219 -95.550781 123.300781 -96.300781 C 126.226562 -97.125 129.300781 -97.574219 132.226562 -97.648438 C 135.226562 -97.726562 138.300781 -97.425781 141.226562 -96.75 C 144.148438 -96.148438 147.074219 -95.101562 149.773438 -93.824219 C 152.476562 -92.476562 155.023438 -90.75 157.351562 -88.875 C 159.675781 -86.925781 161.773438 -84.675781 163.5 -82.199219 C 165.300781 -79.800781 166.800781 -77.101562 167.925781 -74.324219 C 169.050781 -71.550781 169.875 -68.550781 170.324219 -65.625 C 170.699219 -62.625 170.773438 -59.550781 170.550781 -56.550781 C 170.25 -53.625 169.574219 -50.550781 168.601562 -47.773438 C 167.550781 -44.925781 166.199219 -42.148438 164.550781 -39.601562 C 162.976562 -37.125 160.949219 -34.726562 158.773438 -32.699219 C 156.601562 -30.675781 154.425781 -29.773438 151.425781 -27.375 C 146.476562 -23.398438 138.824219 -17.773438 132 -10.125 C 122.023438 0.976562 110.550781 18.300781 99.898438 35.101562 C 87.449219 54.675781 77.925781 83.699219 62.625 100.726562 C 49.199219 115.726562 30.976562 135.226562 15.601562 134.550781 C -0.300781 133.800781 -23.699219 109.875 -31.273438 94.050781 C -37.875 80.398438 -35.023438 62.476562 -32.925781 47.773438 C -30.824219 33.824219 -27.976562 17.476562 -19.5 8.023438 C -11.25 -1.125 4.273438 -6.226562 16.949219 -8.699219 C 29.324219 -11.101562 46.199219 -13.351562 55.574219 -6.898438 C 65.851562 0.0742188 78.449219 29.925781 74.023438 34.800781 C 69.226562 40.199219 22.050781 24.824219 21.449219 18.300781 C 21 12.449219 47.324219 0.375 60.75 -1.875 C 73.199219 -3.898438 85.425781 0.824219 98.925781 3.75 C 114.523438 7.199219 130.425781 12.449219 148.648438 18.300781 C 171.375 25.574219 202.5 37.5 224.324219 44.851562 C 240.976562 50.398438 253.648438 54.824219 268.273438 58.800781 C 282.523438 62.699219 296.398438 66.300781 310.949219 68.625 C 325.875 70.949219 347.550781 71.25 356.925781 72.675781 C 361.050781 73.273438 362.925781 73.574219 365.773438 74.550781 C 368.550781 75.523438 371.324219 76.875 373.875 78.449219 C 376.425781 80.101562 378.75 82.050781 380.851562 84.226562 C 382.875 86.398438 384.75 88.949219 386.25 91.5 C 387.675781 94.125 388.875 96.976562 389.699219 99.898438 C 390.523438 102.75 390.976562 105.824219 391.050781 108.824219 C 391.199219 111.824219 390.898438 114.898438 390.300781 117.824219 C 389.625 120.75 388.648438 123.675781 387.375 126.375 C 386.023438 129.074219 384.375 131.625 382.5 133.949219 C 380.550781 136.273438 378.300781 138.375 375.898438 140.175781 C 373.5 141.976562 370.800781 143.476562 368.023438 144.601562 C 365.25 145.800781 362.25 146.625 359.324219 147.074219 C 356.398438 147.523438 350.324219 147.375 350.324219 147.375 "/></clipPath><clipPath id="4eb5fe2a8a"><path d="M 0 189.578125 L 84.546875 189.578125 L 84.546875 810 L 0 810 Z M 0 189.578125 "/></clipPath><clipPath id="25bbba0af8"><path d="M -71.699219 589.351562 C -69.226562 515.550781 -68.25 502.351562 -66.75 487.351562 C -65.101562 471.375 -63.074219 454.949219 -60.601562 438 C -57.976562 419.773438 -54.523438 400.5 -51.074219 381.449219 C -47.550781 361.875 -43.199219 340.574219 -39.675781 322.050781 C -36.523438 305.773438 -33.300781 291.898438 -30.898438 276.226562 C -28.273438 259.800781 -31.949219 240.074219 -24.75 225.75 C -17.476562 211.273438 -0.226562 191.550781 12.976562 190.050781 C 25.273438 188.625 41.851562 202.574219 51.523438 212.851562 C 60.898438 222.675781 65.699219 240.300781 70.875 249.824219 C 74.175781 255.824219 77.101562 260.175781 79.199219 264.375 C 80.699219 267.523438 81.898438 269.851562 82.648438 272.699219 C 83.476562 275.625 84 278.699219 84.074219 281.625 C 84.148438 284.625 83.925781 287.773438 83.25 290.699219 C 82.648438 293.625 81.675781 296.550781 80.398438 299.25 C 79.050781 301.949219 77.398438 304.5 75.449219 306.824219 C 73.574219 309.148438 71.324219 311.25 68.925781 313.050781 C 66.523438 314.851562 63.824219 316.351562 61.050781 317.550781 C 58.273438 318.675781 55.351562 319.5 52.351562 319.949219 C 49.425781 320.398438 46.050781 320.550781 43.351562 320.25 C 41.101562 320.101562 38.773438 318 37.273438 318.976562 C 34.726562 320.699219 35.398438 328.648438 34.050781 336.074219 C 31.351562 349.949219 26.101562 376.199219 22.574219 395.625 C 19.199219 414.300781 15.898438 432.976562 13.351562 450.449219 C 11.023438 466.425781 9.148438 481.648438 7.726562 496.5 C 6.375 510.375 5.476562 522.449219 4.726562 536.773438 C 3.898438 553.273438 1.050781 573.300781 3.300781 589.949219 C 5.324219 605.324219 12.675781 618.601562 16.425781 633.375 C 20.175781 648.375 22.425781 664.5 25.875 679.425781 C 29.175781 693.824219 34.574219 711.300781 36.75 721.425781 C 37.949219 727.050781 38.25 734.023438 39.074219 734.699219 C 39.226562 734.851562 39.300781 734.773438 39.523438 734.773438 C 40.199219 734.773438 43.949219 735 44.023438 735 C 44.101562 735 46.875 735.898438 48.375 736.273438 C 49.800781 736.726562 52.574219 737.625 52.648438 737.625 C 52.726562 737.625 55.273438 739.199219 56.550781 739.949219 C 57.824219 740.699219 60.375 742.199219 60.449219 742.273438 C 60.449219 742.273438 62.550781 744.375 63.675781 745.425781 C 64.726562 746.476562 66.824219 748.574219 66.898438 748.574219 C 66.898438 748.648438 69.148438 752.25 69.148438 752.25 C 69.148438 752.25 69.226562 752.398438 69.226562 752.476562 C 69.300781 752.476562 69.375 752.625 69.375 752.625 C 69.375 752.625 69.523438 753 69.601562 753 C 69.601562 753 69.523438 752.925781 69.601562 752.925781 C 69.675781 752.851562 71.023438 754.875 71.851562 755.773438 C 72.75 756.75 74.101562 757.800781 74.699219 758.699219 C 75.148438 759.300781 75.226562 759.976562 75.601562 760.5 C 75.976562 761.101562 76.5 761.398438 76.875 762.074219 C 77.398438 763.050781 77.699219 764.699219 78.226562 765.898438 C 78.824219 767.175781 79.726562 768.523438 80.023438 769.574219 C 80.25 770.324219 80.175781 770.925781 80.324219 771.601562 C 80.476562 772.273438 80.851562 772.726562 81 773.550781 C 81.226562 774.601562 81 776.25 81.074219 777.601562 C 81.148438 778.949219 81.675781 780.523438 81.601562 781.648438 C 81.601562 782.398438 81.300781 782.925781 81.226562 783.601562 C 81.148438 784.273438 81.375 784.875 81.226562 785.625 C 81.074219 786.75 80.398438 788.25 80.023438 789.523438 C 79.726562 790.875 79.648438 792.449219 79.273438 793.5 C 78.976562 794.25 78.523438 794.699219 78.226562 795.300781 C 78 795.898438 78 796.5 77.625 797.25 C 77.101562 798.226562 75.976562 799.351562 75.226562 800.550781 C 74.476562 801.675781 73.949219 803.175781 73.199219 804.074219 C 72.75 804.675781 72.148438 804.898438 71.699219 805.425781 C 71.25 805.875 71.023438 806.476562 70.5 807.074219 C 69.675781 807.824219 68.25 808.574219 67.199219 809.398438 C 66.148438 810.226562 65.101562 811.5 64.125 812.101562 C 63.449219 812.476562 62.851562 812.550781 62.25 812.851562 C 61.648438 813.226562 61.273438 813.75 60.601562 814.050781 C 59.625 814.574219 57.976562 814.800781 56.699219 815.25 C 55.425781 815.699219 54 816.523438 52.949219 816.824219 C 52.199219 816.976562 51.601562 816.824219 50.925781 816.976562 C 50.25 817.125 49.726562 817.425781 48.976562 817.574219 C 47.851562 817.726562 45.976562 817.425781 44.925781 817.425781 C 44.25 817.425781 44.101562 817.273438 43.351562 817.574219 C 40.125 818.476562 29.398438 828.75 20.625 829.949219 C 9.898438 831.449219 -8.101562 829.5 -16.949219 821.324219 C -27.226562 811.800781 -29.023438 787.125 -32.699219 771.074219 C -36 756.824219 -36.074219 744.449219 -38.851562 730.050781 C -41.925781 713.699219 -46.125 694.875 -50.925781 678.074219 C -55.5 661.875 -63.375 646.425781 -66.824219 631.050781 C -69.976562 616.875 -71.699219 589.351562 -71.699219 589.351562 M 69.148438 752.25 C 69.675781 752.550781 69.601562 752.925781 69.601562 752.925781 C 69.523438 752.925781 69.375 752.699219 69.375 752.625 C 69.300781 752.550781 69.300781 752.476562 69.226562 752.476562 C 69.226562 752.398438 69.148438 752.25 69.148438 752.25 "/></clipPath><clipPath id="53b07f249b"><path d="M -183.214844 501.082031 C -182.421875 493.136719 -182.121094 489.265625 -182.023438 489.164062 C -182.023438 489.164062 -182.023438 489.066406 -182.023438 489.066406 C -181.921875 488.46875 -176.261719 466.226562 -174.773438 460.664062 C -174.078125 458.28125 -173.980469 457.984375 -173.285156 455.601562 C -171.695312 449.640625 -168.019531 434.25 -165.242188 425.015625 C -162.957031 417.171875 -160.078125 409.722656 -158.191406 403.46875 C -156.699219 398.800781 -156.304688 396.515625 -154.617188 391.054688 C -151.238281 380.03125 -144.1875 358.78125 -138.726562 341.898438 C -132.867188 324.027344 -126.117188 304.164062 -120.355469 286.589844 C -115.09375 270.601562 -109.332031 253.421875 -105.460938 240.8125 C -102.78125 232.171875 -101.191406 225.320312 -99.007812 218.667969 C -97.21875 213.304688 -95.132812 207.742188 -93.546875 204.070312 C -92.550781 201.785156 -91.757812 200.492188 -90.863281 198.707031 C -90.070312 196.820312 -88.28125 193.34375 -88.28125 193.246094 C -88.28125 193.246094 -85.699219 190.167969 -84.410156 188.675781 C -83.21875 187.1875 -80.636719 184.109375 -80.636719 184.109375 C -80.535156 184.011719 -75.769531 181.429688 -75.871094 180.535156 C -75.871094 180.136719 -77.257812 179.542969 -77.257812 179.542969 C -77.359375 179.542969 -79.941406 176.5625 -81.230469 175.074219 C -82.621094 173.582031 -85.203125 170.703125 -85.203125 170.605469 C -85.304688 170.503906 -87.089844 167.128906 -88.082031 165.339844 C -88.976562 163.554688 -90.765625 160.078125 -90.863281 160.078125 C -90.863281 159.980469 -90.863281 159.980469 -90.863281 159.980469 C -90.863281 159.980469 -91.757812 156.105469 -92.253906 154.21875 C -92.75 152.332031 -93.742188 148.460938 -93.742188 148.460938 C -93.742188 148.460938 -93.742188 148.460938 -93.742188 148.359375 C -93.742188 148.359375 -93.742188 144.386719 -93.742188 142.402344 C -93.742188 140.417969 -93.742188 136.542969 -93.742188 136.445312 C -93.742188 136.34375 -92.851562 132.570312 -92.351562 130.585938 C -91.855469 128.699219 -90.964844 124.925781 -90.964844 124.824219 C -90.863281 124.824219 -90.863281 124.824219 -90.863281 124.824219 C -90.863281 124.726562 -89.078125 121.25 -88.183594 119.464844 C -87.191406 117.777344 -85.402344 114.300781 -85.402344 114.199219 C -85.304688 114.101562 -74.875 88.085938 -75.96875 85.203125 C -76.167969 84.609375 -76.761719 84.707031 -77.359375 84.3125 C -78.550781 83.617188 -82.421875 81.234375 -82.421875 81.234375 C -82.523438 81.132812 -85.203125 78.351562 -86.59375 76.960938 C -87.984375 75.472656 -90.765625 72.691406 -90.863281 72.59375 C -90.863281 72.59375 -92.851562 69.21875 -93.84375 67.527344 C -94.835938 65.742188 -96.820312 62.363281 -96.921875 62.363281 C -96.921875 62.265625 -98.011719 58.492188 -98.609375 56.605469 C -99.207031 54.71875 -100.296875 50.945312 -100.296875 50.847656 C -100.398438 50.746094 -100.496094 46.875 -100.59375 44.886719 C -100.695312 42.902344 -100.894531 39.03125 -100.894531 38.929688 C -100.894531 38.832031 -100.199219 34.957031 -99.800781 33.070312 C -99.402344 31.085938 -98.707031 27.210938 -98.609375 27.210938 C -98.609375 27.113281 -98.609375 27.113281 -98.609375 27.113281 C -98.609375 27.113281 -97.019531 23.539062 -96.125 21.75 C -95.332031 19.964844 -93.644531 16.386719 -93.644531 16.289062 C -93.546875 16.191406 -89.375 -21.84375 -85.601562 -40.414062 C -81.726562 -59.082031 -77.65625 -78.148438 -70.804688 -95.425781 C -64.050781 -112.40625 -57.398438 -127.699219 -45.183594 -143.488281 C -29.59375 -163.644531 -1.988281 -185.394531 19.660156 -202.871094 C 39.421875 -218.757812 58.484375 -234.347656 79.140625 -244.777344 C 98.40625 -254.507812 122.039062 -269.003906 139.121094 -264.835938 C 155.703125 -260.863281 168.015625 -221.140625 180.527344 -221.9375 C 192.445312 -222.730469 205.652344 -257.289062 212.703125 -265.628906 C 215.78125 -269.304688 217.765625 -270.890625 219.851562 -272.976562 C 221.441406 -274.664062 222.632812 -275.855469 224.023438 -277.246094 C 225.414062 -278.738281 228.191406 -281.515625 228.191406 -281.515625 C 228.292969 -281.617188 231.570312 -283.703125 233.257812 -284.695312 C 234.945312 -285.785156 238.320312 -287.871094 238.421875 -287.871094 C 238.421875 -287.871094 242.195312 -289.0625 244.082031 -289.757812 C 245.96875 -290.355469 249.640625 -291.546875 249.742188 -291.546875 C 249.839844 -291.546875 253.714844 -291.84375 255.699219 -292.042969 C 257.6875 -292.140625 261.65625 -292.441406 261.65625 -292.441406 C 261.757812 -292.441406 265.628906 -291.746094 267.617188 -291.449219 C 269.601562 -291.050781 273.375 -290.453125 273.476562 -290.453125 C 273.574219 -290.355469 277.148438 -288.867188 279.035156 -288.070312 C 280.824219 -287.277344 284.398438 -285.6875 284.496094 -285.6875 C 284.496094 -285.589844 287.675781 -283.207031 289.265625 -282.011719 C 290.851562 -280.820312 293.929688 -278.4375 294.03125 -278.339844 C 294.03125 -278.339844 296.511719 -275.261719 297.703125 -273.671875 C 298.996094 -272.183594 301.476562 -269.105469 301.476562 -269.003906 C 301.476562 -269.003906 303.464844 -264.835938 303.960938 -263.644531 C 304.257812 -262.949219 304.257812 -262.152344 304.65625 -262.152344 C 306.046875 -262.054688 314.882812 -276.253906 314.984375 -276.453125 C 314.984375 -276.453125 316.871094 -279.929688 317.863281 -281.714844 C 318.757812 -283.402344 320.644531 -286.878906 320.742188 -286.980469 C 320.742188 -286.980469 323.421875 -289.859375 324.714844 -291.347656 C 326.105469 -292.835938 328.6875 -295.71875 328.785156 -295.816406 C 328.785156 -295.816406 332.0625 -298 333.75 -299.09375 C 335.339844 -300.1875 338.617188 -302.371094 338.714844 -302.46875 C 338.816406 -302.46875 342.488281 -303.761719 344.375 -304.457031 C 346.164062 -305.152344 349.835938 -306.542969 349.9375 -306.542969 C 350.035156 -306.542969 353.910156 -306.9375 355.894531 -307.136719 C 357.882812 -307.335938 361.753906 -307.832031 361.851562 -307.832031 C 361.953125 -307.832031 365.824219 -307.234375 367.8125 -307.039062 C 369.796875 -306.738281 373.671875 -306.242188 373.671875 -306.242188 C 373.671875 -306.242188 373.671875 -306.242188 373.769531 -306.242188 C 373.769531 -306.144531 377.445312 -304.753906 379.332031 -303.960938 C 381.117188 -303.265625 384.792969 -301.875 384.890625 -301.773438 C 384.890625 -301.773438 388.070312 -299.492188 389.757812 -298.300781 C 391.347656 -297.207031 394.523438 -294.921875 394.621094 -294.824219 C 394.621094 -294.824219 397.503906 -291.449219 398.496094 -290.355469 C 399.089844 -289.5625 399.6875 -288.667969 399.984375 -288.566406 C 400.183594 -288.566406 400.28125 -288.765625 400.382812 -288.765625 C 400.382812 -288.765625 404.253906 -289.660156 406.140625 -290.15625 C 408.128906 -290.652344 411.902344 -291.546875 412 -291.546875 C 412 -291.546875 415.972656 -291.546875 417.957031 -291.546875 C 419.945312 -291.546875 423.816406 -291.546875 423.917969 -291.546875 C 424.015625 -291.546875 427.789062 -290.652344 429.777344 -290.15625 C 431.664062 -289.660156 435.4375 -288.765625 435.535156 -288.667969 C 435.632812 -288.667969 439.109375 -286.878906 440.898438 -285.886719 C 442.585938 -284.992188 446.0625 -283.207031 446.160156 -283.105469 C 446.261719 -283.105469 449.140625 -280.523438 450.628906 -279.132812 C 452.117188 -277.84375 455.097656 -275.261719 455.097656 -275.160156 C 455.195312 -275.160156 457.382812 -271.886719 458.472656 -270.296875 C 459.664062 -268.609375 461.851562 -265.429688 461.851562 -265.332031 C 461.949219 -265.332031 461.949219 -265.332031 461.949219 -265.332031 C 461.949219 -265.230469 463.339844 -261.65625 464.035156 -259.769531 C 464.730469 -257.882812 466.121094 -254.210938 466.121094 -254.109375 C 466.121094 -254.109375 466.617188 -250.238281 466.816406 -248.25 C 467.113281 -246.265625 467.609375 -242.390625 467.609375 -242.292969 C 467.609375 -242.195312 466.515625 -239.910156 467.210938 -238.917969 C 468.402344 -236.832031 477.839844 -237.527344 479.824219 -233.652344 C 483.199219 -227.101562 469 -197.605469 471.484375 -196.515625 C 474.660156 -195.125 495.710938 -232.5625 507.527344 -248.945312 C 518.253906 -263.941406 539.007812 -291.050781 539.207031 -291.25 C 539.207031 -291.25 541.589844 -294.328125 542.78125 -295.914062 C 544.074219 -297.503906 546.355469 -300.582031 546.457031 -300.683594 C 546.554688 -300.78125 549.535156 -303.164062 551.121094 -304.457031 C 552.710938 -305.648438 555.789062 -308.128906 555.789062 -308.128906 C 555.890625 -308.230469 559.464844 -309.816406 561.25 -310.613281 C 563.039062 -311.507812 566.613281 -313.09375 566.714844 -313.195312 C 566.8125 -313.195312 570.585938 -313.890625 572.570312 -314.285156 C 574.558594 -314.683594 578.332031 -315.378906 578.429688 -315.378906 C 578.53125 -315.378906 582.402344 -315.179688 584.390625 -315.082031 C 586.375 -314.980469 590.347656 -314.785156 590.445312 -314.785156 C 590.445312 -314.785156 594.21875 -313.589844 596.105469 -313.09375 C 597.992188 -312.5 601.765625 -311.40625 601.867188 -311.308594 C 601.964844 -311.308594 605.339844 -309.320312 607.03125 -308.230469 C 608.71875 -307.234375 612.09375 -305.25 612.195312 -305.25 C 612.195312 -305.152344 614.972656 -302.46875 616.464844 -300.980469 C 617.855469 -299.589844 620.632812 -296.910156 620.734375 -296.808594 C 620.734375 -296.808594 622.820312 -293.433594 623.8125 -291.746094 C 624.902344 -290.058594 626.890625 -286.679688 626.988281 -286.679688 C 626.988281 -286.582031 628.378906 -282.3125 628.777344 -280.921875 C 629.074219 -280.125 628.875 -279.132812 629.371094 -279.035156 C 633.144531 -278.4375 668.695312 -335.636719 690.046875 -365.824219 C 713.679688 -399.089844 742.578125 -439.507812 765.019531 -470.289062 C 782.894531 -494.917969 800.269531 -518.453125 813.976562 -536.625 C 823.605469 -549.433594 834.132812 -563.433594 839 -569.195312 C 840.886719 -571.378906 841.777344 -572.074219 843.167969 -573.5625 C 844.460938 -575.054688 847.140625 -577.832031 847.242188 -577.933594 C 847.339844 -577.933594 850.617188 -580.117188 852.304688 -581.109375 C 853.992188 -582.203125 857.269531 -584.386719 857.269531 -584.386719 C 857.371094 -584.386719 861.042969 -585.679688 862.929688 -586.375 C 864.816406 -586.96875 868.589844 -588.261719 868.589844 -588.261719 C 868.691406 -588.261719 872.5625 -588.65625 874.550781 -588.855469 C 876.535156 -588.957031 880.507812 -589.351562 880.507812 -589.351562 C 880.605469 -589.351562 884.480469 -588.757812 886.464844 -588.460938 C 888.453125 -588.160156 892.324219 -587.566406 892.421875 -587.566406 C 892.421875 -587.464844 896.097656 -585.976562 897.886719 -585.28125 C 899.773438 -584.488281 903.347656 -582.996094 903.445312 -582.898438 C 903.546875 -582.898438 906.625 -580.515625 908.210938 -579.421875 C 909.898438 -578.230469 912.980469 -575.847656 913.078125 -575.847656 C 913.078125 -575.75 915.660156 -572.769531 916.851562 -571.179688 C 918.140625 -569.691406 920.625 -566.710938 920.722656 -566.613281 C 920.722656 -566.511719 922.414062 -563.039062 923.304688 -561.25 C 924.199219 -559.464844 925.886719 -555.886719 925.886719 -555.886719 C 925.886719 -555.886719 925.988281 -555.886719 925.988281 -555.886719 C 925.988281 -555.789062 926.78125 -551.917969 927.179688 -550.03125 C 927.574219 -548.042969 928.46875 -544.269531 928.46875 -544.171875 C 928.46875 -544.070312 928.269531 -540.199219 928.269531 -538.113281 C 928.171875 -536.128906 928.074219 -532.253906 928.074219 -532.15625 C 928.074219 -532.054688 926.980469 -528.382812 926.484375 -526.394531 C 925.886719 -524.507812 924.894531 -520.734375 924.796875 -520.636719 C 924.796875 -520.535156 922.808594 -517.160156 921.914062 -515.472656 C 920.921875 -513.683594 918.9375 -510.308594 918.9375 -510.210938 C 918.835938 -510.011719 854.789062 -415.175781 825.097656 -368.902344 C 797.09375 -325.109375 738.308594 -251.429688 745.160156 -239.808594 C 747.9375 -235.242188 759.558594 -241.300781 769.585938 -241.101562 C 785.671875 -240.902344 811.09375 -240.503906 832.148438 -235.839844 C 855.085938 -230.875 882.292969 -224.519531 901.660156 -210.914062 C 921.023438 -197.507812 942.96875 -169.605469 948.527344 -155.105469 C 951.308594 -147.660156 947.535156 -138.820312 949.023438 -135.839844 C 949.71875 -134.648438 951.605469 -133.953125 951.605469 -133.855469 C 951.707031 -133.855469 954.089844 -130.777344 955.378906 -129.289062 C 956.671875 -127.699219 959.054688 -124.621094 959.152344 -124.621094 C 959.152344 -124.519531 960.84375 -120.945312 961.636719 -119.160156 C 962.53125 -117.371094 964.121094 -113.796875 964.21875 -113.695312 C 964.21875 -113.695312 964.914062 -109.824219 965.3125 -107.839844 C 965.707031 -105.953125 966.503906 -102.078125 966.503906 -101.980469 C 966.503906 -101.878906 966.304688 -98.007812 966.203125 -96.019531 C 966.105469 -94.035156 966.007812 -90.0625 965.90625 -90.0625 C 965.90625 -89.964844 964.8125 -86.191406 964.21875 -84.304688 C 963.722656 -82.417969 962.53125 -78.644531 962.53125 -78.542969 C 962.53125 -78.445312 960.542969 -75.070312 959.550781 -73.378906 C 958.460938 -71.691406 956.570312 -68.316406 956.472656 -68.214844 C 956.472656 -68.117188 953.691406 -65.335938 952.300781 -63.945312 C 950.910156 -62.554688 948.230469 -59.675781 948.132812 -59.675781 C 948.132812 -59.675781 948.132812 -59.675781 948.03125 -59.578125 C 947.832031 -59.179688 947.636719 -53.421875 947.535156 -48.15625 C 947.238281 -37.035156 947.535156 -13.601562 947.535156 4.371094 C 947.535156 23.4375 947.832031 43.597656 947.4375 63.160156 C 947.136719 82.820312 946.640625 102.085938 945.449219 122.046875 C 944.257812 142.699219 941.578125 164.347656 940.386719 185.003906 C 939.195312 204.960938 938.699219 223.433594 938.300781 243.988281 C 937.902344 266.628906 938.203125 293.640625 938.203125 315.285156 C 938.300781 333.359375 938.5 347.757812 938.699219 365.234375 C 938.898438 384.402344 939.195312 405.054688 939.691406 425.511719 C 940.285156 446.664062 940.882812 466.125 942.171875 490.15625 C 943.863281 520.742188 947.933594 563.640625 949.71875 593.828125 C 951.109375 617.265625 951.011719 636.527344 952.601562 656.289062 C 954.089844 674.066406 957.664062 689.855469 958.855469 706.933594 C 960.046875 724.511719 957.765625 754.101562 959.550781 760.359375 C 959.949219 761.847656 960.445312 761.945312 961.039062 762.941406 C 961.933594 764.328125 964.121094 768.003906 964.21875 768.105469 C 964.21875 768.203125 965.410156 771.878906 965.90625 773.765625 C 966.503906 775.652344 967.695312 779.425781 967.695312 779.523438 C 967.792969 779.621094 967.992188 783.496094 968.089844 785.480469 C 968.191406 787.46875 968.488281 791.339844 968.488281 791.441406 C 968.488281 791.539062 967.695312 795.410156 967.394531 797.296875 C 967 799.285156 966.304688 803.15625 966.304688 803.257812 C 966.203125 803.355469 964.617188 806.929688 963.820312 808.71875 C 963.125 810.207031 962.234375 811.101562 961.835938 812.988281 C 961.238281 816.164062 962.035156 820.136719 962.53125 826.292969 C 963.621094 840.296875 978.019531 876.144531 970.277344 895.109375 C 962.332031 914.472656 933.632812 933.9375 913.972656 940.589844 C 897.191406 946.351562 879.414062 939.796875 861.839844 939.398438 C 843.664062 939.003906 825.691406 938.40625 806.527344 938.109375 C 785.574219 937.910156 762.238281 938.109375 741.085938 938.109375 C 721.128906 938.109375 702.160156 938.109375 682.796875 938.109375 C 663.433594 938.109375 644.664062 938.207031 624.902344 938.109375 C 604.148438 938.109375 582.003906 938.109375 561.25 938.007812 C 541.191406 937.808594 522.425781 937.511719 502.167969 937.117188 C 480.617188 936.71875 457.582031 935.824219 435.535156 935.527344 C 413.988281 935.328125 392.140625 935.527344 371.285156 935.527344 C 351.425781 935.527344 332.261719 935.128906 313.097656 935.527344 C 294.527344 936.023438 276.355469 936.816406 257.984375 938.007812 C 239.613281 939.199219 221.835938 941.386719 202.96875 942.675781 C 182.710938 944.066406 161.066406 948.039062 140.210938 945.855469 C 119.058594 943.667969 82.21875 928.773438 76.957031 929.371094 C 76.160156 929.371094 75.664062 930.066406 75.566406 929.964844 C 75.566406 929.867188 76.160156 929.171875 76.160156 929.171875 C 76.0625 929.070312 73.183594 931.753906 71.695312 933.144531 C 70.203125 934.433594 67.324219 937.015625 67.226562 937.117188 C 67.125 937.117188 63.75 939.003906 61.960938 939.894531 C 60.175781 940.890625 56.699219 942.675781 56.699219 942.675781 C 56.597656 942.777344 52.824219 943.667969 50.839844 944.164062 C 48.953125 944.664062 45.082031 945.65625 45.082031 945.65625 C 44.980469 945.65625 41.007812 945.65625 39.023438 945.65625 C 37.035156 945.65625 33.164062 945.65625 33.066406 945.65625 C 32.964844 945.65625 28.894531 944.664062 27.304688 944.265625 C 26.113281 943.96875 24.921875 943.273438 24.226562 943.570312 C 23.632812 943.769531 23.035156 945.058594 23.035156 945.058594 C 23.035156 945.160156 20.949219 948.535156 19.859375 950.222656 C 18.863281 951.910156 16.78125 955.1875 16.78125 955.289062 C 16.679688 955.386719 13.898438 958.066406 12.507812 959.457031 C 11.019531 960.847656 8.238281 963.628906 8.238281 963.628906 C 8.140625 963.726562 4.765625 965.714844 3.074219 966.707031 C 1.386719 967.699219 -1.988281 969.6875 -2.089844 969.785156 C -2.1875 969.785156 -5.960938 970.878906 -7.847656 971.472656 C -9.734375 972.070312 -13.507812 973.160156 -13.507812 973.261719 C -13.605469 973.261719 -17.578125 973.460938 -19.566406 973.558594 C -21.550781 973.660156 -25.425781 973.855469 -25.523438 973.855469 C -25.621094 973.855469 -29.394531 973.0625 -31.382812 972.664062 C -33.367188 972.269531 -37.140625 971.574219 -37.242188 971.574219 C -37.339844 971.574219 -40.914062 969.886719 -42.703125 969.089844 C -44.488281 968.195312 -48.066406 966.609375 -48.164062 966.507812 C -48.164062 966.507812 -51.242188 964.027344 -52.832031 962.835938 C -54.320312 961.542969 -57.398438 959.160156 -57.5 959.0625 C -57.5 959.0625 -59.882812 955.882812 -61.171875 954.292969 C -62.363281 952.707031 -64.746094 949.628906 -64.746094 949.628906 C -64.847656 949.527344 -66.335938 945.953125 -67.128906 944.066406 C -68.023438 942.277344 -69.515625 938.703125 -69.613281 938.605469 C -69.613281 938.503906 -70.308594 934.730469 -70.605469 932.746094 C -70.902344 930.761719 -71.597656 926.886719 -71.597656 926.789062 C -71.597656 926.789062 -71.300781 922.816406 -71.203125 920.828125 C -71.101562 918.84375 -70.804688 914.972656 -70.804688 914.871094 C -70.804688 914.773438 -69.613281 911.097656 -68.917969 909.210938 C -68.320312 907.324219 -68.023438 905.734375 -67.128906 903.453125 C -65.742188 899.878906 -59.085938 893.023438 -60.972656 889.550781 C -64.152344 883.492188 -95.234375 891.933594 -105.363281 881.605469 C -119.859375 866.609375 -118.074219 811.5 -119.460938 788.558594 C -120.257812 775.253906 -116.382812 759.363281 -118.570312 756.78125 C -119.164062 756.089844 -120.953125 756.585938 -120.953125 756.484375 C -121.050781 756.484375 -124.726562 755.09375 -126.613281 754.398438 C -128.398438 753.703125 -132.074219 752.316406 -132.171875 752.316406 C -132.273438 752.214844 -135.449219 750.03125 -137.136719 748.839844 C -138.726562 747.746094 -141.90625 745.460938 -142.003906 745.460938 C -142.105469 745.363281 -144.683594 742.484375 -145.976562 740.992188 C -147.265625 739.503906 -149.847656 736.527344 -149.949219 736.527344 C -149.949219 736.425781 -151.835938 732.949219 -152.730469 731.164062 C -153.621094 729.375 -155.410156 726 -155.507812 725.898438 C -155.507812 725.800781 -156.402344 722.027344 -156.898438 720.042969 C -157.394531 718.15625 -158.289062 714.382812 -158.289062 714.28125 C -158.390625 714.183594 -158.289062 710.308594 -158.289062 708.222656 C -158.289062 706.238281 -158.289062 702.367188 -158.289062 702.265625 C -158.289062 702.167969 -156.898438 692.136719 -155.808594 684.09375 C -153.523438 667.90625 -143.890625 614.484375 -145.679688 611.703125 C -145.878906 611.40625 -146.273438 611.503906 -146.375 611.503906 C -146.375 611.40625 -149.75 609.417969 -151.4375 608.425781 C -153.226562 607.433594 -156.601562 605.347656 -156.601562 605.347656 C -156.699219 605.25 -159.480469 602.566406 -160.871094 601.175781 C -162.261719 599.6875 -165.042969 597.007812 -165.140625 596.90625 C -165.140625 596.90625 -167.226562 593.53125 -168.21875 591.84375 C -169.3125 590.15625 -171.398438 586.777344 -171.398438 586.679688 C -171.398438 586.679688 -172.589844 582.90625 -173.183594 581.019531 C -173.78125 579.132812 -174.972656 575.359375 -174.972656 575.359375 C -174.972656 575.257812 -174.972656 575.257812 -174.972656 575.257812 C -175.070312 575.257812 -175.269531 571.289062 -175.371094 569.300781 C -175.566406 567.316406 -175.765625 563.441406 -175.765625 563.34375 C -175.765625 563.242188 -175.070312 559.46875 -174.773438 557.484375 C -174.375 555.5 -173.78125 551.625 -173.679688 551.625 C -173.679688 551.425781 -170.503906 535.242188 -171.398438 531.664062 C -171.792969 530.175781 -172.6875 529.878906 -173.484375 528.785156 C -174.476562 527.394531 -176.957031 524.019531 -177.058594 524.019531 C -177.058594 523.921875 -178.546875 520.246094 -179.242188 518.457031 C -180.035156 516.570312 -181.527344 512.996094 -181.527344 512.898438 C -181.527344 512.796875 -182.121094 508.925781 -182.320312 506.941406 C -182.617188 504.953125 -183.214844 501.082031 -183.214844 501.082031 M 13.105469 -107.042969 C 13.203125 -106.746094 13.898438 -107.242188 13.800781 -107.242188 C 13.800781 -107.242188 13.105469 -107.042969 13.105469 -107.042969 M 17.671875 -108.335938 C 32.269531 -93.042969 40.710938 -111.808594 38.625 -114.292969 C 36.539062 -116.675781 17.671875 -108.335938 17.671875 -108.335938 "/></clipPath></defs><g id="2d8a380182"><rect x="0" width="810" y="0" height="809.999993" style="fill:#ffffff;fill-opacity:1;stroke:none;"/><rect x="0" width="810" y="0" height="809.999993" style="fill:#ffffff;fill-opacity:1;stroke:none;"/><g clip-rule="nonzero" clip-path="url(#5d8eb4541c)"><g clip-rule="nonzero" clip-path="url(#45b686cb17)"><path style=" stroke:none;fill-rule:nonzero;fill:#566e8a;fill-opacity:1;" d="M 313.199219 70.125 L 393.523438 70.125 L 393.523438 150.449219 L 313.199219 150.449219 Z M 313.199219 70.125 "/></g></g><g clip-rule="nonzero" clip-path="url(#14edca1a43)"><g clip-rule="nonzero" clip-path="url(#f8ffaedac2)"><path style=" stroke:none;fill-rule:nonzero;fill:#566e8a;fill-opacity:1;" d="M -35.925781 -100.648438 L 394.050781 -100.648438 L 394.050781 294.867188 L -35.925781 294.867188 Z M -35.925781 -100.648438 "/></g></g><g clip-rule="nonzero" clip-path="url(#4eb5fe2a8a)"><g clip-rule="nonzero" clip-path="url(#25bbba0af8)"><path style=" stroke:none;fill-rule:nonzero;fill:#566e8a;fill-opacity:1;" d="M -74.699219 187.050781 L 87.074219 187.050781 L 87.074219 832.886719 L -74.699219 832.886719 Z M -74.699219 187.050781 "/></g></g><g clip-rule="nonzero" clip-path="url(#53b07f249b)"><rect x="0" width="810" y="0" height="809.999993" style="fill:#40d3de;fill-opacity:1;stroke:none;"/></g><g style="fill:#a678ff;fill-opacity:1;"><g transform="translate(12.899417, 592.375562)"><path style="stroke:none" d="M 353.59375 0 L 353.59375 -222.078125 C 353.59375 -224.972656 353.757812 -239.171875 354.09375 -264.671875 C 354.4375 -290.171875 354.609375 -307.273438 354.609375 -315.984375 L 353.078125 -315.984375 L 247.921875 0 L 197.515625 0 L 92.109375 -315.46875 L 90.578125 -315.46875 C 90.578125 -302.84375 90.742188 -284.84375 91.078125 -261.46875 C 91.421875 -238.101562 91.59375 -224.972656 91.59375 -222.078125 L 91.59375 0 L 42.46875 0 L 42.46875 -376.109375 L 115.140625 -376.109375 L 222.078125 -58.078125 L 223.609375 -58.078125 L 330.046875 -376.109375 L 402.96875 -376.109375 L 402.96875 0 Z M 353.59375 0 "/></g><g transform="translate(458.339955, 592.375562)"><path style="stroke:none" d="M 93.390625 -202.375 L 194.453125 -202.375 C 219.859375 -202.375 238.957031 -207.957031 251.75 -219.125 C 264.550781 -230.300781 270.953125 -247.234375 270.953125 -269.921875 C 270.953125 -290.222656 264.8125 -305.742188 252.53125 -316.484375 C 240.25 -327.234375 221.570312 -332.609375 196.5 -332.609375 L 93.390625 -332.609375 Z M 93.390625 0 L 42.46875 0 L 42.46875 -376.109375 L 211.59375 -376.109375 C 245.195312 -376.109375 272.226562 -366.34375 292.6875 -346.8125 C 313.15625 -327.28125 323.390625 -301.820312 323.390625 -270.4375 C 323.390625 -237.851562 313.492188 -211.113281 293.703125 -190.21875 C 273.921875 -169.332031 246.550781 -158.890625 211.59375 -158.890625 L 93.390625 -158.890625 Z M 93.390625 0 "/></g></g></g></svg>